<svg xmlns="http://www.w3.org/2000/svg" x="0px" y="0px" width="20px" height="20px" viewBox="0 0 20 20"><path d="m17,6c0-1.195-.703-2.217-1.714-2.7l-2.993,2.993c-.188.188-.293.442-.293.707v6c0,.265.105.52.293.707l2.993,2.993c1.011-.483,1.714-1.505,1.714-2.7V6Z" stroke-width="0" fill="rgba(255, 255, 255, 1)"></path><line x1="3" y1="10" x2="9" y2="10" fill="none" stroke="rgba(255, 255, 255, 1)" stroke-linecap="round" stroke-linejoin="round" stroke-width="2" data-color="color-2"></line><path d="m7.44,15.544c.526.869,1.47,1.456,2.56,1.456h4c1.657,0,3-1.343,3-3V6c0-1.657-1.343-3-3-3h-4c-1.089,0-2.033.585-2.558,1.453" fill="none" stroke="rgba(255, 255, 255, 1)" stroke-linecap="round" stroke-linejoin="round" stroke-width="2"></path><polyline points="5.75 7.5 3 10 5.75 12.5" fill="none" stroke="rgba(255, 255, 255, 1)" stroke-linecap="round" stroke-linejoin="round" stroke-width="2" data-color="color-2"></polyline></svg>